<svg width="777" height="785" viewBox="0 0 777 785" fill="none" xmlns="http://www.w3.org/2000/svg">
<path d="M923.889 511.29C923.889 511.29 856.959 503.253 781.123 363.216C713.615 238.557 607.643 249.011 533.832 288.983C516.609 298.31 503.701 308.748 493.918 319.083C490.894 322.312 485.769 318.724 487.828 314.692C501.806 289.091 532.528 258.666 559.133 217.211C604.996 145.706 646.863 60.4551 614.331 0.380764L414.424 108.638C414.424 108.638 440.717 115.082 455.485 142.351C503.895 231.745 438.281 311.825 437.265 395.636C437.093 403.153 426.834 405.263 423.896 398.368C362.326 254.318 365.011 135.398 365.011 135.398L118.153 269.082C27.3237 318.269 -24.0487 377.644 11.704 443.664C25.3611 468.883 67.4386 498.598 110.982 480.586C146.29 465.973 171.665 431.549 168.371 400.983C110.509 427.81 59.1511 340.808 129.682 302.612C148.135 292.619 180.28 296.159 210.262 326.061C243.608 363.156 285.146 417.824 327.116 495.326C423.382 673.088 420.647 784.082 420.647 784.082L649.462 660.169C649.462 660.169 568.149 614.313 511.411 509.541C478.323 448.442 479.926 398.519 509.57 379.814C538.096 361.98 577.476 373.003 619.669 450.916C680.626 563.478 679.806 643.736 679.806 643.736L923.795 511.606L923.889 511.29Z" fill="#412413"/>
</svg>
