<svg width="526" height="722" viewBox="0 0 526 722" fill="none" xmlns="http://www.w3.org/2000/svg">
<path d="M418.087 35.6318C280.218 -44.7599 182.723 22.4859 113.655 140.934C52.636 245.58 42.5603 369.822 118.476 414.089C155.873 435.895 196.592 417.7 214.935 386.242C181.979 365.304 194.673 302.594 244.555 217.048C303.703 115.612 363.121 35.8419 404.048 59.7067C444.976 83.5715 404.817 174.572 345.67 276.008C187.788 546.77 49.1452 399.47 3.19374 478.275C-23.3851 523.857 12.596 559.892 46.7823 579.827C121.575 623.438 146.156 624.437 207.681 662.033C246.856 685.952 255.234 721.377 255.234 721.377C308.631 702.832 343.936 613.517 262.402 565.975C200.771 530.037 99.8444 554.849 56.6702 529.674C43.6697 522.093 33.6378 512.372 42.2479 497.607C53.8527 477.705 116.938 492.338 192.594 500.536C315.888 513.715 407.249 470.636 476.223 352.348C545.197 234.061 555.795 115.93 417.926 35.5382L418.087 35.6318Z" fill="#412413"/>
</svg>
